<svg width="150" height="43" viewBox="0 0 150 43" fill="none" xmlns="http://www.w3.org/2000/svg">
<g clip-path="url(#clip0_2_431)">
<g clip-path="url(#clip1_2_431)">
<g clip-path="url(#clip2_2_431)">
<path fill-rule="evenodd" clip-rule="evenodd" d="M18.3353 11.7696L18.3265 42.2511L21.5809 42.2421L21.5719 31.6022L27.3211 31.5931L27.312 42.2421H30.7184V0.893066L27.3029 3.15773L27.2987 28.3781L21.6077 28.3592L21.6122 6.1538L0 18.6554L0.0290845 35.7919L3.44454 35.8012L3.44896 20.5514L18.3353 11.7696Z" fill="white"/>
<path fill-rule="evenodd" clip-rule="evenodd" d="M12.4255 42.0995V18.9434L9.06442 20.9133L9.13537 38.9548L0.0517352 38.8835L0.00683594 42.0813L12.4255 42.0995Z" fill="white"/>
<path d="M54.2943 24.9542V13.7548H57.0442V24.9542C57.0442 26.0165 56.8169 26.9215 56.3622 27.6688C55.9076 28.4162 55.288 28.9877 54.5033 29.3834C53.7187 29.779 52.8278 29.9768 51.8305 29.9768C50.8112 29.9768 49.9055 29.8046 49.1136 29.4602C48.3289 29.1159 47.7131 28.5884 47.2657 27.8777C46.8184 27.1669 46.5947 26.2657 46.5947 25.174H49.3666C49.3666 25.8041 49.4656 26.3133 49.6636 26.7017C49.8689 27.0827 50.1549 27.3611 50.5215 27.5369C50.8955 27.7055 51.3318 27.7897 51.8305 27.7897C52.3071 27.7897 52.7288 27.6835 53.0954 27.471C53.4694 27.2512 53.7627 26.9324 53.9753 26.5148C54.188 26.0898 54.2943 25.5696 54.2943 24.9542Z" fill="white"/>
<path d="M67.1195 26.9544V17.8652H69.7813V29.757H67.2735L67.1195 26.9544ZM67.4934 24.4816L68.3844 24.4596C68.3844 25.2582 68.2964 25.9946 68.1204 26.6687C67.9444 27.3354 67.6731 27.918 67.3065 28.4162C66.9398 28.9071 66.4705 29.2918 65.8985 29.5702C65.3265 29.8413 64.6409 29.9768 63.8416 29.9768C63.2623 29.9768 62.7307 29.8925 62.2467 29.724C61.7628 29.5555 61.3448 29.2954 60.9928 28.9437C60.6481 28.5921 60.3805 28.1341 60.1899 27.5699C59.9991 27.0057 59.9038 26.3316 59.9038 25.5477V17.8652H62.5547V25.5696C62.5547 26.0019 62.6061 26.3646 62.7087 26.6577C62.8113 26.9435 62.9507 27.1742 63.1266 27.3501C63.3027 27.5259 63.508 27.6505 63.7426 27.7238C63.9773 27.797 64.2266 27.8336 64.4906 27.8336C65.2459 27.8336 65.8398 27.6872 66.2725 27.3941C66.7125 27.0936 67.0242 26.6907 67.2075 26.1851C67.3981 25.6796 67.4934 25.1117 67.4934 24.4816Z" fill="white"/>
<path d="M79.1744 26.5368C79.1744 26.273 79.1084 26.0349 78.9764 25.8224C78.8444 25.6026 78.5916 25.4048 78.2174 25.2289C77.8514 25.0531 77.3084 24.8918 76.5899 24.7454C75.9591 24.6061 75.3801 24.4412 74.8519 24.2507C74.3312 24.053 73.8839 23.8148 73.5099 23.5364C73.136 23.258 72.8463 22.9283 72.641 22.5473C72.4357 22.1662 72.333 21.7266 72.333 21.2284C72.333 20.7448 72.4394 20.2868 72.652 19.8545C72.8646 19.4222 73.169 19.0412 73.565 18.7115C73.9609 18.3818 74.4412 18.1218 75.0059 17.9313C75.5781 17.7407 76.2156 17.6454 76.9199 17.6454C77.9174 17.6454 78.7716 17.8139 79.4826 18.151C80.2011 18.4808 80.7509 18.9314 81.1326 19.5029C81.5136 20.067 81.7049 20.7045 81.7049 21.4152H79.0536C79.0536 21.1002 78.9726 20.807 78.8114 20.536C78.6576 20.2575 78.4229 20.0341 78.1079 19.8656C77.7921 19.6897 77.3961 19.6018 76.9199 19.6018C76.4654 19.6018 76.0874 19.6751 75.7866 19.8215C75.4934 19.9608 75.2736 20.144 75.1266 20.3711C74.9876 20.5982 74.9179 20.8474 74.9179 21.1184C74.9179 21.3163 74.9546 21.4958 75.0276 21.657C75.1086 21.8108 75.2406 21.9537 75.4236 22.0856C75.6074 22.2102 75.8564 22.3274 76.1721 22.4373C76.4946 22.5473 76.8981 22.6535 77.3819 22.7561C78.2909 22.9466 79.0716 23.192 79.7249 23.4924C80.3849 23.7855 80.8904 24.1665 81.2429 24.6354C81.5946 25.0971 81.7709 25.6832 81.7709 26.3939C81.7709 26.9215 81.6569 27.405 81.4296 27.8447C81.2099 28.277 80.8866 28.6543 80.4614 28.9767C80.0361 29.2917 79.5269 29.5372 78.9329 29.7131C78.3464 29.8889 77.6864 29.9768 76.9529 29.9768C75.8751 29.9768 74.9618 29.7863 74.2139 29.4053C73.466 29.017 72.8976 28.5224 72.509 27.9216C72.1277 27.3134 71.937 26.6834 71.937 26.0312H74.4999C74.5292 26.5221 74.6649 26.9142 74.9069 27.2073C75.1559 27.493 75.4641 27.7018 75.8309 27.8336C76.2051 27.9582 76.5899 28.0205 76.9859 28.0205C77.4621 28.0205 77.8619 27.9582 78.1844 27.8336C78.5076 27.7018 78.7529 27.5259 78.9216 27.3062C79.0904 27.079 79.1744 26.8226 79.1744 26.5368Z" fill="white"/>
<path d="M89.5469 17.8652V19.7996H82.8374V17.8652H89.5469ZM84.7732 14.9528H87.4244V26.4708C87.4244 26.8372 87.4754 27.1193 87.5782 27.3171C87.6884 27.5076 87.8384 27.6359 88.0289 27.7018C88.2202 27.7677 88.4437 27.8007 88.7002 27.8007C88.8832 27.8007 89.0594 27.7897 89.2282 27.7677C89.3969 27.7457 89.5327 27.7238 89.6354 27.7018L89.6459 29.724C89.4262 29.79 89.1697 29.8486 88.8764 29.8999C88.5899 29.9512 88.2599 29.9768 87.8864 29.9768C87.2774 29.9768 86.7389 29.8706 86.2694 29.6581C85.7999 29.4383 85.4332 29.0829 85.1692 28.592C84.9052 28.1011 84.7732 27.449 84.7732 26.6357V14.9528Z" fill="white"/>
<path d="M102.439 20.4371V22.6241H93.9359V20.4371H102.439ZM94.6177 13.7548V29.757H91.8569V13.7548H94.6177ZM104.561 13.7548V29.757H101.812V13.7548H104.561Z" fill="white"/>
<path d="M107.081 23.943V23.6903C107.081 22.833 107.205 22.038 107.454 21.3053C107.704 20.5652 108.063 19.9241 108.533 19.382C109.009 18.8324 109.589 18.4075 110.27 18.107C110.96 17.7993 111.737 17.6454 112.602 17.6454C113.474 17.6454 114.252 17.7993 114.934 18.107C115.623 18.4075 116.207 18.8324 116.683 19.382C117.16 19.9241 117.523 20.5652 117.772 21.3053C118.021 22.038 118.146 22.833 118.146 23.6903V23.943C118.146 24.8003 118.021 25.5953 117.772 26.3279C117.523 27.0607 117.16 27.7018 116.683 28.2513C116.207 28.7935 115.627 29.2185 114.945 29.5262C114.263 29.8266 113.489 29.9768 112.624 29.9768C111.752 29.9768 110.971 29.8266 110.281 29.5262C109.599 29.2185 109.02 28.7935 108.543 28.2513C108.067 27.7018 107.704 27.0607 107.454 26.3279C107.205 25.5953 107.081 24.8003 107.081 23.943ZM109.731 23.6903V23.943C109.731 24.4779 109.787 24.9835 109.896 25.4597C110.006 25.936 110.179 26.3536 110.413 26.7126C110.648 27.0717 110.948 27.3538 111.315 27.5589C111.682 27.764 112.118 27.8666 112.624 27.8666C113.115 27.8666 113.54 27.764 113.9 27.5589C114.266 27.3538 114.567 27.0717 114.802 26.7126C115.037 26.3536 115.209 25.936 115.319 25.4597C115.436 24.9835 115.495 24.4779 115.495 23.943V23.6903C115.495 23.1627 115.436 22.6645 115.319 22.1955C115.209 21.7193 115.033 21.298 114.791 20.9316C114.557 20.5652 114.256 20.2795 113.889 20.0744C113.53 19.8619 113.101 19.7556 112.602 19.7556C112.103 19.7556 111.671 19.8619 111.304 20.0744C110.945 20.2795 110.648 20.5652 110.413 20.9316C110.179 21.298 110.006 21.7193 109.896 22.1955C109.787 22.6645 109.731 23.1627 109.731 23.6903Z" fill="white"/>
<path d="M123.019 20.2832V29.757H120.368V17.8652H122.864L123.019 20.2832ZM122.59 23.3715L121.688 23.3606C121.688 22.5399 121.79 21.7816 121.996 21.0855C122.201 20.3895 122.501 19.7849 122.897 19.272C123.293 18.7518 123.785 18.3525 124.371 18.0741C124.965 17.7884 125.651 17.6454 126.428 17.6454C126.971 17.6454 127.466 17.726 127.913 17.8872C128.368 18.0411 128.76 18.2866 129.09 18.6236C129.428 18.9606 129.684 19.3929 129.86 19.9205C130.043 20.448 130.135 21.0855 130.135 21.8328V29.757H127.484V22.0637C127.484 21.4848 127.397 21.0305 127.22 20.7008C127.052 20.3711 126.806 20.1366 126.483 19.9974C126.168 19.8509 125.79 19.7776 125.351 19.7776C124.852 19.7776 124.427 19.8729 124.075 20.0634C123.73 20.2539 123.448 20.514 123.227 20.8437C123.008 21.1734 122.846 21.5544 122.744 21.9867C122.641 22.419 122.59 22.8806 122.59 23.3715ZM129.97 22.6681L128.727 22.9429C128.727 22.2248 128.826 21.5471 129.024 20.9096C129.23 20.2649 129.527 19.7007 129.915 19.2171C130.311 18.7262 130.799 18.3415 131.378 18.0631C131.957 17.7847 132.621 17.6454 133.369 17.6454C133.978 17.6454 134.52 17.7297 134.997 17.8982C135.481 18.0594 135.892 18.3159 136.229 18.6676C136.566 19.0193 136.823 19.4772 136.999 20.0414C137.175 20.5982 137.263 21.2723 137.263 22.0637V29.757H134.601V22.0526C134.601 21.4518 134.513 20.9866 134.337 20.6569C134.168 20.3271 133.926 20.1 133.611 19.9754C133.295 19.8436 132.918 19.7776 132.478 19.7776C132.068 19.7776 131.705 19.8546 131.389 20.0085C131.081 20.155 130.821 20.3638 130.608 20.6348C130.396 20.8986 130.234 21.2027 130.124 21.5471C130.022 21.8915 129.97 22.2651 129.97 22.6681Z" fill="white"/>
<path d="M145.237 29.9768C144.357 29.9768 143.562 29.834 142.85 29.5482C142.147 29.2551 141.545 28.8485 141.046 28.3283C140.555 27.8081 140.177 27.1962 139.913 26.4929C139.649 25.7895 139.517 25.0311 139.517 24.2178V23.7782C139.517 22.8476 139.653 22.005 139.924 21.2504C140.196 20.4956 140.573 19.8509 141.058 19.316C141.541 18.7738 142.114 18.3599 142.774 18.0741C143.433 17.7884 144.148 17.6454 144.918 17.6454C145.769 17.6454 146.513 17.7884 147.151 18.0741C147.789 18.3599 148.317 18.7628 148.735 19.283C149.16 19.796 149.476 20.4077 149.681 21.1184C149.893 21.8292 150 22.6132 150 23.4704V24.6025H140.804V22.7011H147.382V22.4923C147.367 22.016 147.272 21.5691 147.096 21.1515C146.927 20.7338 146.667 20.3967 146.315 20.1403C145.963 19.8839 145.494 19.7556 144.907 19.7556C144.467 19.7556 144.075 19.8509 143.73 20.0414C143.393 20.2246 143.11 20.492 142.883 20.8437C142.656 21.1954 142.48 21.6203 142.355 22.1186C142.238 22.6095 142.18 23.1627 142.18 23.7782V24.2178C142.18 24.738 142.249 25.2216 142.388 25.6685C142.535 26.1082 142.747 26.4929 143.026 26.8226C143.305 27.1523 143.642 27.4124 144.038 27.6029C144.434 27.786 144.885 27.8777 145.391 27.8777C146.029 27.8777 146.597 27.7494 147.096 27.493C147.595 27.2365 148.027 26.8739 148.394 26.4049L149.791 27.7568C149.534 28.1304 149.2 28.4895 148.79 28.8339C148.379 29.1709 147.877 29.4456 147.283 29.6581C146.696 29.8706 146.014 29.9768 145.237 29.9768Z" fill="white"/>
</g>
</g>
</g>
<defs>
<clipPath id="clip0_2_431">
<rect width="150" height="42" fill="white" transform="translate(0 0.25)"/>
</clipPath>
<clipPath id="clip1_2_431">
<rect width="150" height="42" fill="white" transform="translate(0 0.25)"/>
</clipPath>
<clipPath id="clip2_2_431">
<rect width="150" height="42" fill="white" transform="translate(0 0.25)"/>
</clipPath>
</defs>
</svg>
